<svg xmlns="http://www.w3.org/2000/svg" xmlns:xlink="http://www.w3.org/1999/xlink" width="1080" zoomAndPan="magnify" viewBox="0 0 810 1012.49997" height="1350" preserveAspectRatio="xMidYMid meet" version="1.0"><defs><clipPath id="88ad6cbbf0"><path d="M 253 358 L 557 358 L 557 895.46875 L 253 895.46875 Z M 253 358 " clip-rule="nonzero"/></clipPath><clipPath id="3ef5138266"><path d="M 282 63.382812 L 346 63.382812 L 346 344 L 282 344 Z M 282 63.382812 " clip-rule="nonzero"/></clipPath><clipPath id="3b923afa39"><path d="M 221.457031 418 L 237 418 L 237 553 L 221.457031 553 Z M 221.457031 418 " clip-rule="nonzero"/></clipPath><clipPath id="e3d1afc37a"><path d="M 221.457031 580 L 237 580 L 237 644 L 221.457031 644 Z M 221.457031 580 " clip-rule="nonzero"/></clipPath><clipPath id="1528a01729"><path d="M 573 432 L 588.773438 432 L 588.773438 611 L 573 611 Z M 573 432 " clip-rule="nonzero"/></clipPath></defs><g clip-path="url(#88ad6cbbf0)"><path fill="#143d29" d="M 556.507812 399.542969 L 556.507812 854.390625 C 556.507812 876.894531 538.234375 895.175781 515.714844 895.175781 L 294.667969 895.175781 C 272.140625 895.175781 253.875 876.894531 253.875 854.390625 L 253.875 399.542969 C 253.875 376.992188 272.140625 358.710938 294.667969 358.710938 L 515.714844 358.710938 C 538.234375 358.710938 556.507812 376.992188 556.507812 399.542969 Z M 310.816406 471.5625 L 500.371094 471.5625 C 506.695312 471.5625 511.828125 466.417969 511.828125 460.078125 C 511.828125 453.742188 506.695312 448.644531 500.371094 448.644531 L 310.816406 448.644531 C 304.492188 448.644531 299.359375 453.742188 299.359375 460.078125 C 299.359375 466.417969 304.492188 471.5625 310.816406 471.5625 Z M 310.816406 508.902344 L 500.371094 508.902344 C 506.695312 508.902344 511.828125 503.757812 511.828125 497.421875 C 511.828125 491.128906 506.695312 485.984375 500.371094 485.984375 L 310.816406 485.984375 C 304.492188 485.984375 299.359375 491.128906 299.359375 497.421875 C 299.359375 503.757812 304.492188 508.902344 310.816406 508.902344 Z M 433.757812 741.402344 C 433.757812 732.308594 426.398438 724.960938 417.332031 724.960938 L 391.75 724.960938 C 382.683594 724.960938 375.320312 732.308594 375.320312 741.402344 C 375.320312 750.449219 382.683594 757.800781 391.75 757.800781 L 417.332031 757.800781 C 426.398438 757.800781 433.757812 750.449219 433.757812 741.402344 Z M 311.484375 435.046875 L 501.039062 435.046875 C 507.363281 435.046875 512.496094 429.902344 512.496094 423.613281 C 512.496094 417.273438 507.363281 412.128906 501.039062 412.128906 L 311.484375 412.128906 C 305.164062 412.128906 300.03125 417.273438 300.03125 423.613281 C 300.03125 429.902344 305.164062 435.046875 311.484375 435.046875 Z M 319.363281 586.894531 L 489.722656 586.894531 C 496.046875 586.894531 501.179688 581.75 501.179688 575.410156 C 501.179688 569.117188 496.046875 563.972656 489.722656 563.972656 L 319.363281 563.972656 C 313.039062 563.972656 307.90625 569.117188 307.90625 575.410156 C 307.90625 581.75 313.039062 586.894531 319.363281 586.894531 Z M 433.757812 789.261719 C 433.757812 780.167969 426.398438 772.816406 417.332031 772.816406 L 391.75 772.816406 C 382.683594 772.816406 375.320312 780.167969 375.320312 789.261719 C 375.320312 798.308594 382.683594 805.660156 391.75 805.660156 L 417.332031 805.660156 C 426.398438 805.660156 433.757812 798.308594 433.757812 789.261719 Z M 501.820312 625.472656 L 307.195312 625.472656 C 301.339844 625.472656 296.597656 630.207031 296.597656 636.039062 L 296.597656 686.195312 C 296.597656 692.074219 301.339844 696.804688 307.195312 696.804688 L 501.820312 696.804688 C 507.675781 696.804688 512.417969 692.074219 512.417969 686.195312 L 512.417969 636.039062 C 512.417969 630.207031 507.675781 625.472656 501.820312 625.472656 Z M 513.125 789.261719 C 513.125 780.167969 505.765625 772.816406 496.699219 772.816406 L 471.117188 772.816406 C 462.050781 772.816406 454.6875 780.167969 454.6875 789.261719 C 454.6875 798.308594 462.050781 805.660156 471.117188 805.660156 L 496.699219 805.660156 C 505.765625 805.660156 513.125 798.308594 513.125 789.261719 Z M 433.757812 837.121094 C 433.757812 828.074219 426.398438 820.679688 417.332031 820.679688 L 391.75 820.679688 C 382.683594 820.679688 375.320312 828.074219 375.320312 837.121094 C 375.320312 846.167969 382.683594 853.5625 391.75 853.5625 L 417.332031 853.5625 C 426.398438 853.5625 433.757812 846.167969 433.757812 837.121094 Z M 354.523438 837.121094 C 354.523438 828.074219 347.160156 820.679688 338.09375 820.679688 L 312.511719 820.679688 C 303.445312 820.679688 296.085938 828.074219 296.085938 837.121094 C 296.085938 846.167969 303.445312 853.5625 312.511719 853.5625 L 338.09375 853.5625 C 347.160156 853.5625 354.523438 846.167969 354.523438 837.121094 Z M 310.816406 548.21875 L 500.371094 548.21875 C 506.695312 548.21875 511.828125 543.121094 511.828125 536.78125 C 511.828125 530.445312 506.695312 525.300781 500.371094 525.300781 L 310.816406 525.300781 C 304.492188 525.300781 299.359375 530.445312 299.359375 536.78125 C 299.359375 543.121094 304.492188 548.21875 310.816406 548.21875 Z M 354.523438 789.261719 C 354.523438 780.167969 347.160156 772.816406 338.09375 772.816406 L 312.511719 772.816406 C 303.445312 772.816406 296.085938 780.167969 296.085938 789.261719 C 296.085938 798.308594 303.445312 805.660156 312.511719 805.660156 L 338.09375 805.660156 C 347.160156 805.660156 354.523438 798.308594 354.523438 789.261719 Z M 513.125 741.402344 C 513.125 732.308594 505.765625 724.960938 496.699219 724.960938 L 471.117188 724.960938 C 462.050781 724.960938 454.6875 732.308594 454.6875 741.402344 C 454.6875 750.449219 462.050781 757.800781 471.117188 757.800781 L 496.699219 757.800781 C 505.765625 757.800781 513.125 750.449219 513.125 741.402344 Z M 354.523438 741.402344 C 354.523438 732.308594 347.160156 724.960938 338.09375 724.960938 L 312.511719 724.960938 C 303.445312 724.960938 296.085938 732.308594 296.085938 741.402344 C 296.085938 750.449219 303.445312 757.800781 312.511719 757.800781 L 338.09375 757.800781 C 347.160156 757.800781 354.523438 750.449219 354.523438 741.402344 Z M 513.125 837.121094 C 513.125 828.074219 505.765625 820.679688 496.699219 820.679688 L 471.117188 820.679688 C 462.050781 820.679688 454.6875 828.074219 454.6875 837.121094 C 454.6875 846.167969 462.050781 853.5625 471.117188 853.5625 L 496.699219 853.5625 C 505.765625 853.5625 513.125 846.167969 513.125 837.121094 Z M 513.125 837.121094 " fill-opacity="1" fill-rule="evenodd"/></g><path fill="#143d29" d="M 503.304688 285.871094 C 508.25 285.871094 512.992188 287.839844 516.488281 291.332031 C 519.984375 294.828125 521.949219 299.570312 521.949219 304.519531 C 521.949219 319.183594 521.949219 338.347656 521.949219 345.800781 C 521.949219 347.546875 520.535156 348.960938 518.789062 348.960938 C 508.011719 348.960938 472.742188 348.960938 461.960938 348.960938 C 460.222656 348.960938 458.808594 347.546875 458.808594 345.800781 C 458.808594 338.347656 458.808594 319.183594 458.808594 304.519531 C 458.808594 299.570312 460.769531 294.828125 464.269531 291.332031 C 467.765625 287.839844 472.503906 285.871094 477.449219 285.871094 C 485.605469 285.871094 495.152344 285.871094 503.304688 285.871094 Z M 503.304688 285.871094 " fill-opacity="1" fill-rule="evenodd"/><path fill="#143d29" d="M 406.753906 313.785156 C 420.578125 313.785156 431.78125 324.988281 431.78125 338.8125 C 431.78125 341.847656 431.78125 344.519531 431.78125 346.355469 C 431.78125 347.792969 430.617188 348.960938 429.179688 348.960938 C 420.253906 348.960938 390.929688 348.960938 382.003906 348.960938 C 381.3125 348.960938 380.644531 348.683594 380.164062 348.199219 C 379.671875 347.707031 379.398438 347.046875 379.398438 346.355469 C 379.398438 344.519531 379.398438 341.847656 379.398438 338.8125 C 379.398438 324.988281 390.605469 313.785156 404.425781 313.785156 C 405.203125 313.785156 405.980469 313.785156 406.753906 313.785156 Z M 406.753906 313.785156 " fill-opacity="1" fill-rule="evenodd"/><g clip-path="url(#3ef5138266)"><path fill="#143d29" d="M 345.304688 280.164062 L 345.304688 343.253906 L 282.167969 343.253906 L 282.167969 280.164062 L 288.53125 280.078125 L 295.113281 79.265625 C 299.757812 57.542969 331.988281 59.039062 334.253906 79.265625 L 340.183594 280.285156 Z M 345.304688 280.164062 " fill-opacity="1" fill-rule="evenodd"/></g><g clip-path="url(#3b923afa39)"><path fill="#143d29" d="M 236.363281 545.515625 C 236.363281 549.621094 233.015625 552.972656 228.863281 552.972656 C 224.753906 552.972656 221.40625 549.621094 221.40625 545.515625 L 221.40625 426.128906 C 221.40625 422.023438 224.753906 418.671875 228.863281 418.671875 C 233.015625 418.671875 236.363281 422.023438 236.363281 426.128906 Z M 236.363281 545.515625 " fill-opacity="1" fill-rule="evenodd"/></g><g clip-path="url(#e3d1afc37a)"><path fill="#143d29" d="M 236.542969 636.460938 C 236.542969 640.570312 233.195312 643.917969 229.085938 643.917969 C 224.976562 643.917969 221.628906 640.570312 221.628906 636.460938 L 221.628906 587.617188 C 221.628906 583.507812 224.976562 580.160156 229.085938 580.160156 C 233.195312 580.160156 236.542969 583.507812 236.542969 587.617188 Z M 236.542969 636.460938 " fill-opacity="1" fill-rule="evenodd"/></g><g clip-path="url(#1528a01729)"><path fill="#143d29" d="M 588.449219 602.617188 C 588.449219 606.726562 585.101562 610.074219 580.980469 610.074219 C 576.859375 610.074219 573.515625 606.726562 573.515625 602.617188 L 573.515625 440.191406 C 573.515625 436.085938 576.859375 432.738281 580.980469 432.738281 C 585.101562 432.738281 588.449219 436.085938 588.449219 440.191406 Z M 588.449219 602.617188 " fill-opacity="1" fill-rule="evenodd"/></g></svg>