<svg xmlns="http://www.w3.org/2000/svg" xmlns:xlink="http://www.w3.org/1999/xlink" width="1080" zoomAndPan="magnify" viewBox="0 0 810 1012.49997" height="1350" preserveAspectRatio="xMidYMid meet" version="1.0"><defs><clipPath id="d4fdfda459"><path d="M 143 304 L 670.347656 304 L 670.347656 605 L 143 605 Z M 143 304 " clip-rule="nonzero"/></clipPath></defs><g clip-path="url(#d4fdfda459)"><path fill="#ba954e" d="M 380.78125 315.035156 L 154.289062 541.527344 C 139.90625 555.90625 139.90625 579.238281 154.289062 593.621094 C 168.683594 608.015625 192.011719 608.015625 206.390625 593.621094 L 406.832031 393.183594 L 607.273438 593.621094 C 621.652344 608.015625 644.988281 608.015625 659.378906 593.621094 C 666.566406 586.433594 670.160156 577.003906 670.160156 567.574219 C 670.160156 558.140625 666.566406 548.714844 659.378906 541.527344 L 432.882812 315.035156 C 418.496094 300.644531 395.167969 300.644531 380.78125 315.035156 " fill-opacity="1" fill-rule="nonzero"/></g><path fill="#ba954e" d="M 424.996094 461.855469 C 414.964844 451.824219 398.695312 451.824219 388.667969 461.855469 L 230.738281 619.78125 C 220.707031 629.808594 220.707031 646.078125 230.738281 656.105469 C 240.769531 666.144531 257.042969 666.144531 267.066406 656.105469 L 406.832031 516.347656 L 546.597656 656.105469 C 556.625 666.144531 572.890625 666.144531 582.929688 656.105469 C 587.941406 651.089844 590.449219 644.523438 590.449219 637.949219 C 590.449219 631.367188 587.941406 624.800781 582.929688 619.78125 L 424.996094 461.855469 " fill-opacity="1" fill-rule="nonzero"/><path fill="#ba954e" d="M 419.011719 574.402344 C 412.285156 567.675781 401.375 567.675781 394.652344 574.402344 L 288.800781 680.261719 C 282.078125 686.980469 282.078125 697.886719 288.800781 704.609375 C 295.527344 711.335938 306.425781 711.335938 313.148438 704.609375 L 406.832031 610.929688 L 500.511719 704.609375 C 507.242188 711.335938 518.136719 711.335938 524.871094 704.609375 C 528.230469 701.246094 529.910156 696.84375 529.910156 692.433594 C 529.910156 688.027344 528.230469 683.621094 524.871094 680.261719 L 419.011719 574.402344 " fill-opacity="1" fill-rule="nonzero"/></svg>